# xmcd
#
# Track frame offsets: 
#        150
#        20757
#        44047
#        71097
#        90089
#        113122
#        132913
#        154791
#        177679
#        201029
#
# Disc length: 2961 seconds
#
# Revision: 1
# Processed by: cddbd v1.5.2PL0 Copyright (c) Steve Scherf et al.
# Submitted via: ExactAudioCopy v1.0b3
#
DISCID=8b0b8f0a
DTITLE=Duy Khanh - Xin Anh Giu Tron Tinh Que CD3
DYEAR=2002
DGENRE=
TTITLE0=Duy Khanh, Huong Lan - Di tu ruong dong bao la
TTITLE1=Chien si vo danh
TTITLE2=Duy Khanh, Huong Lan - Anh di chien dich
TTITLE3=Chung minh ba dua
TTITLE4=Suong trang mien que ngoai
TTITLE5=Ly ca phe cuoi cung
TTITLE6=Da ta
TTITLE7=Trang tan tren he pho
TTITLE8=Nen huong yeu
TTITLE9=Ngay ve
EXTD=
EXTT0=
EXTT1=
EXTT2=
EXTT3=
EXTT4=
EXTT5=
EXTT6=
EXTT7=
EXTT8=
EXTT9=
PLAYORDER=
